<?xml version="1.0" encoding="UTF-8"?>
<svg version="1.1" xmlns="http://www.w3.org/2000/svg" width="1130" height="516">
<path d="M0 0 C0.70343536 0.00182281 1.40687073 0.00364563 2.13162231 0.00552368 C12.79264645 0.05198321 22.88714616 0.60772997 33.25 3.3125 C33.93481445 3.48410645 34.61962891 3.65571289 35.32519531 3.83251953 C64.36838262 11.20867173 95.60154252 28.28377849 113.25 53.3125 C113.25 53.9725 113.25 54.6325 113.25 55.3125 C113.92482422 54.71115234 113.92482422 54.71115234 114.61328125 54.09765625 C116.81256037 52.15400477 119.02978786 50.23220572 121.25 48.3125 C122.05953125 47.60222656 122.8690625 46.89195313 123.703125 46.16015625 C137.84396807 34.11503693 154.20438727 25.85658413 171.9375 20.5 C172.5773584 20.3050293 173.2172168 20.11005859 173.87646484 19.90917969 C184.74997128 16.81803998 195.73845617 15.94602344 207 16 C208.22428711 16.00491455 209.44857422 16.0098291 210.70996094 16.01489258 C220.20783672 16.13722321 229.0526725 16.97050011 238.25 19.3125 C238.89227539 19.47347168 239.53455078 19.63444336 240.19628906 19.80029297 C272.41663596 28.12321632 300.73903004 49.06541738 318.25 77.3125 C318.93840465 78.97030616 319.60900489 80.63579266 320.25 82.3125 C320.93400879 82.0858667 321.61801758 81.8592334 322.32275391 81.62573242 C353.68962724 71.27999137 387.49625288 64.94209796 420.25 73.3125 C421.054375 73.50585938 421.85875 73.69921875 422.6875 73.8984375 C447.71857509 80.00541666 469.89704535 91.24487183 489.25 108.3125 C490.74466797 109.60800781 490.74466797 109.60800781 492.26953125 110.9296875 C498.98613369 116.8432983 504.85193783 123.15959077 510.25 130.3125 C510.84893066 131.09898926 510.84893066 131.09898926 511.45996094 131.90136719 C526.02289229 151.14808287 536.224937 172.61944935 541.25 196.3125 C541.39808105 197.00472656 541.54616211 197.69695312 541.69873047 198.41015625 C546.14216425 220.105975 546.21077157 243.70580279 541.25 265.3125 C541.08902832 266.03727539 540.92805664 266.76205078 540.76220703 267.50878906 C534.1278084 296.45541594 519.21016399 322.65699367 498.62695312 343.88427734 C497.40503033 345.15169726 496.20836774 346.44336299 495.015625 347.73828125 C484.32444339 359.05244525 470.98266213 367.21129069 457.25 374.3125 C456.63688965 374.63202637 456.0237793 374.95155273 455.39208984 375.28076172 C433.73979527 386.40642369 410.07658951 391.51430877 385.8125 391.5 C384.1111792 391.5009668 384.1111792 391.5009668 382.37548828 391.50195312 C372.89231078 391.44302645 363.62879771 390.66963869 354.25 389.3125 C353.64865234 390.32957031 353.64865234 390.32957031 353.03515625 391.3671875 C349.32689557 397.43830816 345.33487482 402.7439237 340.4609375 407.92578125 C338.86695169 409.64649738 337.34866252 411.43842818 335.8828125 413.26953125 C333.17728442 416.54100633 330.10516716 419.10490422 326.75 421.6875 C326.13833984 422.16082764 325.52667969 422.63415527 324.89648438 423.12182617 C313.44638211 431.84353769 297.17937503 443.3125 282.25 443.3125 C281.92 443.9725 281.59 444.6325 281.25 445.3125 C271.96757629 447.48670758 262.36398971 447.66948361 252.875 447.625 C251.60495117 447.61936035 250.33490234 447.6137207 249.02636719 447.60791016 C233.30040597 447.40464396 219.85753915 443.83788854 205.25 438.3125 C204.26 437.9825 203.27 437.6525 202.25 437.3125 C201.78851563 438.30507813 201.32703125 439.29765625 200.8515625 440.3203125 C185.76303296 472.05106532 159.04894731 497.33210981 125.73681641 509.20849609 C110.7635991 514.20896968 96.58996844 516.73183418 80.75 516.6875 C79.6993486 516.68718277 79.6993486 516.68718277 78.62747192 516.68685913 C66.79684224 516.65134081 55.65812441 515.56014618 44.25 512.3125 C43.58307129 512.13058105 42.91614258 511.94866211 42.22900391 511.76123047 C11.08369048 503.07655423 -17.90661353 480.88321159 -34.16748047 452.87060547 C-38.06232494 445.85507203 -41.83031533 438.79373386 -44.75 431.3125 C-45.3881665 431.38106201 -46.02633301 431.44962402 -46.68383789 431.52026367 C-81.89911601 435.04273754 -116.51083556 429.92266135 -144.93164062 407.45703125 C-171.14340962 385.79387135 -187.77489966 357.14057072 -192.75 323.3125 C-193.72395549 306.66256301 -193.2304278 290.41553303 -188.75 274.3125 C-188.56808105 273.6412207 -188.38616211 272.96994141 -188.19873047 272.27832031 C-182.65008905 252.39444893 -171.97261702 235.13982013 -157.75 220.3125 C-156.99203125 219.49136719 -156.2340625 218.67023438 -155.453125 217.82421875 C-148.94776903 210.98934312 -141.71567431 205.3445792 -133.75 200.3125 C-133.09 200.3125 -132.43 200.3125 -131.75 200.3125 C-132.70764655 197.74974147 -133.6660936 195.18728711 -134.625 192.625 C-134.89441406 191.90376953 -135.16382813 191.18253906 -135.44140625 190.43945312 C-135.70566406 189.73369141 -135.96992188 189.02792969 -136.2421875 188.30078125 C-136.50177246 187.60509033 -136.76135742 186.90939941 -137.02880859 186.19262695 C-137.5948233 184.71704155 -138.21028821 183.26041267 -138.84375 181.8125 C-146.25448181 161.36910189 -145.32199962 131.07858663 -139.75 110.3125 C-139.55132324 109.53583984 -139.35264648 108.75917969 -139.14794922 107.95898438 C-132.67816693 83.08788123 -120.86895922 61.61474349 -102.75 43.3125 C-101.87859375 42.38050781 -101.0071875 41.44851562 -100.109375 40.48828125 C-83.17588426 22.73782385 -61.03689422 11.24593788 -37.625 4.5625 C-36.9335791 4.36366211 -36.2421582 4.16482422 -35.52978516 3.95996094 C-23.78896956 0.77702883 -12.1274454 -0.0654336 0 0 Z " fill="#00A1DF" transform="translate(192.75,-0.3125)"/>
<path d="M0 0 C1.81640625 1.62109375 1.81640625 1.62109375 3 3 C3 3.66 3 4.32 3 5 C3.66 5 4.32 5 5 5 C6.3671875 6.90625 6.3671875 6.90625 7.875 9.5 C8.36742187 10.3353125 8.85984375 11.170625 9.3671875 12.03125 C19.46480013 30.3905457 22.12293536 51.35896966 16.9765625 71.82421875 C14.23482701 80.74034256 10.56952805 88.5140752 5 96 C4.2575 97.03125 3.515 98.0625 2.75 99.125 C-6.97485626 109.29189518 -19.50438548 114.10303563 -33 117 C-27.28177786 124.67445603 -20.21386214 128.85272756 -10.78125 130.6640625 C-4.21731504 131.45689734 2.39795745 131.711966 9 132 C10.23184766 134.46369532 10.16732342 136.1894501 10.1875 138.9375 C10.20167969 139.81277344 10.21585938 140.68804687 10.23046875 141.58984375 C10 144 10 144 8 147 C4.39437074 146.74683783 0.79100865 146.46912806 -2.8125 146.1875 C-4.31973633 146.08211914 -4.31973633 146.08211914 -5.85742188 145.97460938 C-20.23307406 144.81901032 -33.93744381 140.86151451 -44 130 C-49.44885177 122.84384134 -49.44885177 122.84384134 -50.64453125 118.84375 C-52.94281425 115.71755526 -56.68861632 115.78563465 -60.3125 115.1875 C-74.9291467 112.34185842 -87.06685728 105.44544204 -95.62182617 93.00341797 C-99.77388491 86.67103886 -103.00358665 80.34591873 -105 73 C-105.22300781 72.22398437 -105.44601562 71.44796875 -105.67578125 70.6484375 C-110.23773321 51.0972148 -107.46927536 28.70751398 -97.47265625 11.34765625 C-88.77011263 -1.94163977 -76.22457049 -10.3791763 -60.75 -13.9375 C-38.71971457 -17.6206526 -17.61734125 -14.27561595 0 0 Z M-77.8125 12.5625 C-89.37303161 26.36055386 -91.16097518 42.704152 -90 60 C-88.47528743 72.73583444 -83.64296749 84.27541037 -74 93 C-62.3584918 101.77099933 -49.17860857 103.43311351 -35 102 C-27.94602824 100.59926223 -21.63976629 98.51181303 -16 94 C-14.7934375 93.195625 -14.7934375 93.195625 -13.5625 92.375 C-2.92094766 82.51209783 1.26272695 68.85214189 2.22265625 54.72265625 C2.65082965 38.17282358 -1.0400547 22.26186153 -12.66015625 9.97265625 C-21.46122561 2.55272298 -32.09479357 -0.35811699 -43.375 -0.25 C-44.17421875 -0.25773438 -44.9734375 -0.26546875 -45.796875 -0.2734375 C-58.31211469 -0.23293511 -68.9590612 3.41146662 -77.8125 12.5625 Z " fill="#7A868E" transform="translate(1111,162)"/>
<path d="M0 0 C63.75 0 63.75 0 77.8125 12.5 C86.64299882 22.59199865 88.0333634 33.94721897 87.22021484 46.91943359 C86.42295087 54.45189881 83.97530337 62.1954794 79 68 C78.34 68 77.68 68 77 68 C76.74992188 68.598125 76.49984375 69.19625 76.2421875 69.8125 C72.47190637 76.45198877 63.84618807 79.03719977 56.9921875 81.23828125 C51.17093977 82.72019157 45.52764624 83.12252135 39.53515625 83.09765625 C38.29386963 83.09515869 37.05258301 83.09266113 35.77368164 83.09008789 C34.2189917 83.08098389 32.66430176 83.07187988 31.0625 83.0625 C23.6065625 83.0315625 23.6065625 83.0315625 16 83 C16 97.19 16 111.38 16 126 C10.72 126 5.44 126 0 126 C0 84.42 0 42.84 0 0 Z M16 14 C16 32.15 16 50.3 16 69 C20.74375 69.061875 25.4875 69.12375 30.375 69.1875 C31.8501709 69.21481201 33.3253418 69.24212402 34.84521484 69.27026367 C46.27351863 69.34202817 55.48168828 68.0845088 64 60 C70.03449392 52.53628384 70.91647213 44.30393226 70 35 C68.59228614 28.50934328 66.49343622 23.20380576 61.0234375 19.2109375 C46.95620957 10.79232619 32.04404508 13.10866416 16 14 Z " fill="#7A868D" transform="translate(908,150)"/>
<path d="M0 0 C1.42578125 1.26953125 1.42578125 1.26953125 3.11328125 3.64453125 C2.76855476 7.15643235 1.22691651 8.98933479 -1.19921875 11.45703125 C-1.79347656 12.08222656 -2.38773438 12.70742187 -3 13.3515625 C-4.88671875 14.64453125 -4.88671875 14.64453125 -6.82421875 14.5234375 C-9.25495763 13.48761127 -11.3557081 12.20566858 -13.57421875 10.76953125 C-25.18718988 3.72060991 -37.79787125 2.24623647 -51.140625 4.921875 C-62.44277941 7.89612616 -70.35734499 13.66066062 -76.34765625 23.69921875 C-84.21113872 38.74760906 -85.90559294 58.82118491 -80.85546875 75.1171875 C-76.14568637 87.40440202 -70.00599606 95.97721939 -57.75390625 101.4921875 C-46.12542294 106.16576049 -33.65272572 106.09222364 -21.88671875 101.64453125 C-15.68476679 98.99046063 -10.24745516 95.72335243 -4.88671875 91.64453125 C2.59619697 97.79487294 2.59619697 97.79487294 5.11328125 101.64453125 C1.8708177 109.18284752 -5.74006544 112.94703592 -13.01171875 115.95703125 C-20.50761341 118.89094906 -27.84875319 120.06447188 -35.88671875 120.64453125 C-37.15708984 120.75087891 -37.15708984 120.75087891 -38.453125 120.859375 C-54.33486133 121.53119126 -69.55846948 116.74143571 -81.796875 106.60546875 C-95.76876286 93.49539827 -101.28291027 75.88888135 -101.8828125 57.14453125 C-102.12090026 37.30099873 -97.43559592 19.03608534 -83.94921875 3.95703125 C-62.28932902 -16.59587944 -23.73192194 -17.04964164 0 0 Z " fill="#79868E" transform="translate(889.88671875,158.35546875)"/>
<path d="M0 0 C7.56427689 8.16688176 9.84511884 17.76417414 9.96484375 28.70703125 C9.63614364 35.95408598 8.63099045 41.86540183 4.92578125 48.13671875 C4.56484375 48.77222656 4.20390625 49.40773438 3.83203125 50.0625 C0.1090591 55.93624323 -4.97866725 58.88659218 -11.32421875 61.44921875 C-21.52509301 63.31937903 -30.18600843 62.36946167 -39.26171875 57.38671875 C-46.15482681 51.87223231 -50.30686966 45.90356901 -52.07421875 37.13671875 C-52.38139591 33.92590159 -52.48224543 30.73622547 -52.51171875 27.51171875 C-52.52187012 26.72442383 -52.53202148 25.93712891 -52.54248047 25.12597656 C-52.41235821 16.33997497 -49.68470343 7.98756765 -44.07421875 1.13671875 C-31.79979219 -10.0920163 -12.78946257 -11.48883926 0 0 Z " fill="#FBFDFE" transform="translate(484.07421875,214.86328125)"/>
<path d="M0 0 C6.22322359 6.7455565 6.54069029 13.42219741 6.44921875 22.2578125 C6.44638885 23.29253693 6.44355896 24.32726135 6.44064331 25.39334106 C6.42948673 28.68422214 6.40439022 31.97482678 6.37890625 35.265625 C6.36887062 37.50260022 6.35974578 39.73957973 6.3515625 41.9765625 C6.3295622 47.4480103 6.29612963 52.91929789 6.25390625 58.390625 C-7.22762793 64.26120242 -23.5079557 65.89428646 -37.74609375 61.390625 C-44.00866773 58.39395409 -47.02072014 53.84784016 -49.49609375 47.453125 C-50.36009494 40.32511515 -49.96836905 35.32078694 -45.74609375 29.390625 C-40.60015508 23.69821496 -34.83328654 19.83261044 -27.04003906 19.15551758 C-24.10271124 19.09666175 -21.18295933 19.12796899 -18.24609375 19.203125 C-16.72628906 19.22342773 -16.72628906 19.22342773 -15.17578125 19.24414062 C-12.69864971 19.27919437 -10.22266448 19.32832736 -7.74609375 19.390625 C-8.02851016 17.93047209 -8.32235989 16.47252707 -8.62109375 15.015625 C-8.78351563 14.20351562 -8.9459375 13.39140625 -9.11328125 12.5546875 C-9.61268307 10.20388577 -9.61268307 10.20388577 -11.74609375 8.390625 C-19.56816231 5.54623643 -30.47598365 6.57988124 -38.01171875 9.734375 C-39.74609375 10.390625 -39.74609375 10.390625 -42.74609375 10.390625 C-43.73609375 7.090625 -44.72609375 3.790625 -45.74609375 0.390625 C-33.7482351 -8.38829596 -11.59880249 -10.69061885 0 0 Z " fill="#FBFDFE" transform="translate(214.74609375,213.609375)"/>
<path d="M0 0 C6.55204779 4.85087343 9.57805491 12.58455748 10.87109375 20.3671875 C11.31595218 24.5488567 11.50893977 28.74256467 11.14453125 32.9375 C10.14453125 33.9375 10.14453125 33.9375 8.35386658 34.05775452 C7.57443192 34.05553391 6.79499725 34.05331329 5.99194336 34.05102539 C5.1111058 34.05094986 4.23026825 34.05087433 3.32273865 34.05079651 C2.36545364 34.04563522 1.40816864 34.04047394 0.421875 34.03515625 C-0.55333603 34.0337413 -1.52854706 34.03232635 -2.53330994 34.03086853 C-5.66156018 34.02525133 -8.78973998 34.01269593 -11.91796875 34 C-14.03320209 33.99498722 -16.14843656 33.99042393 -18.26367188 33.98632812 C-23.46096171 33.97527631 -28.6582102 33.95852146 -33.85546875 33.9375 C-33.24339263 35.8852539 -32.62178151 37.83001339 -31.99609375 39.7734375 C-31.65094727 40.8567334 -31.30580078 41.9400293 -30.95019531 43.05615234 C-29.56639235 46.6983563 -28.34946703 48.19050086 -24.85546875 49.9375 C-15.35335849 53.6327651 -4.69657578 51.41936554 5.14453125 49.9375 C6.94683293 53.76739106 7.34075366 56.71871808 7.14453125 60.9375 C-3.60852745 65.98485409 -17.45563877 67.14959361 -28.85546875 63.3125 C-39.12119038 58.84914277 -43.65792896 53.36598987 -47.85546875 42.9375 C-51.25970522 32.8285783 -49.30231786 19.29598189 -44.85546875 9.9375 C-39.96691601 2.35686407 -33.11551581 -2.5720126 -24.3125 -4.66796875 C-15.44495814 -6.09185067 -7.83626875 -4.48729495 0 0 Z " fill="#FAFDFE" transform="translate(650.85546875,212.0625)"/>
<path d="M0 0 C6.91010425 3.49120364 11.0404779 7.95110596 13.921875 15.109375 C15.39519783 19.8206785 15.74944651 24.13526711 15.73828125 29.0703125 C15.74085938 30.22015625 15.7434375 31.37 15.74609375 32.5546875 C15.61328125 35.3203125 15.61328125 35.3203125 14.61328125 36.3203125 C13.26233143 36.41300249 11.90661034 36.43778576 10.55249023 36.43383789 C9.69167343 36.43376236 8.83085663 36.43368683 7.94395447 36.43360901 C7.00854324 36.42844772 6.07313202 36.42328644 5.109375 36.41796875 C4.15636002 36.4165538 3.20334503 36.41513885 2.22145081 36.41368103 C-0.8354704 36.40806402 -3.89231952 36.39550866 -6.94921875 36.3828125 C-9.01627499 36.37779969 -11.08333237 36.37323641 -13.15039062 36.36914062 C-18.22919463 36.35808906 -23.30794445 36.34081305 -28.38671875 36.3203125 C-28.08918755 37.75095427 -27.78599903 39.18042016 -27.48046875 40.609375 C-27.31224609 41.40553223 -27.14402344 42.20168945 -26.97070312 43.02197266 C-26.06333693 46.59302007 -24.93836235 48.64108672 -22.38671875 51.3203125 C-14.74860705 55.40894877 -6.68786136 54.31369568 1.61328125 53.3203125 C2.495 53.22105469 3.37671875 53.12179687 4.28515625 53.01953125 C6.06391885 52.80822435 7.83931213 52.56866818 9.61328125 52.3203125 C10.93328125 55.6203125 12.25328125 58.9203125 13.61328125 62.3203125 C2.02876942 67.60148701 -10.79735546 69.60943961 -23.40234375 66.140625 C-31.74105731 62.693519 -37.76262243 57.01703608 -41.63671875 48.8828125 C-46.43723817 37.2686526 -44.82038268 25.52443943 -40.54296875 14.05859375 C-37.06608677 6.19064961 -31.16419869 2.29804457 -23.40234375 -0.91796875 C-15.28960329 -3.98382997 -7.9881885 -3.23143128 0 0 Z " fill="#FBFDFE" transform="translate(304.38671875,209.6796875)"/>
<path d="M0 0 C-0.55316586 3.96435532 -1.45620868 7.3162378 -3 11 C-4.21236328 10.93039063 -4.21236328 10.93039063 -5.44921875 10.859375 C-11.8782557 10.60288448 -11.8782557 10.60288448 -18 12.25 C-21.26561134 16.7402156 -22.44209076 21.6915685 -24 27 C-19.05 27 -14.1 27 -9 27 C-9.875 36.75 -9.875 36.75 -11 39 C-15.95 39 -20.9 39 -26 39 C-26.37705078 41.76890625 -26.37705078 41.76890625 -26.76171875 44.59375 C-28.09898257 53.9299413 -29.67146152 63.22277979 -31.29418945 72.51318359 C-31.63957399 74.50349655 -31.97975027 76.49472036 -32.31469727 78.48681641 C-37.87594438 111.5391527 -37.87594438 111.5391527 -49 121 C-55.40934669 125.31649879 -63.52227587 124.65653906 -71 124 C-72.32 123.34 -73.64 122.68 -75 122 C-74.01 118.7 -73.02 115.4 -72 112 C-67 111 -67 111 -63.4375 111.0625 C-59.99185838 110.99985197 -58.75422233 110.9219757 -56 109 C-51.6184437 100.8954469 -49.87097603 91.76682989 -48.359375 82.76953125 C-48.14686096 81.57188644 -47.93434692 80.37424164 -47.71539307 79.14030457 C-47.04798575 75.36640134 -46.39825749 71.58973504 -45.75 67.8125 C-45.08395675 63.99668731 -44.41425977 60.18154699 -43.74176025 56.36686707 C-43.32655361 54.00495602 -42.91572564 51.64227022 -42.50970459 49.27876282 C-42.32571106 48.21973251 -42.14171753 47.16070221 -41.95214844 46.06958008 C-41.79180115 45.13616287 -41.63145386 44.20274567 -41.46624756 43.24104309 C-41 41 -41 41 -40 39 C-43.63 39 -47.26 39 -51 39 C-50.125 30.375 -50.125 30.375 -49 27 C-45.7 26.67 -42.4 26.34 -39 26 C-38.65388672 24.7315625 -38.65388672 24.7315625 -38.30078125 23.4375 C-35.74439125 14.5457087 -33.1995783 6.14857242 -25 1 C-17.65269039 -2.6736548 -7.37228953 -4.49137056 0 0 Z " fill="#FAFDFE" transform="translate(440,182)"/>
<path d="M0 0 C-0.75 7.625 -0.75 7.625 -3 11 C-4.59328125 10.566875 -4.59328125 10.566875 -6.21875 10.125 C-7.64569849 9.74948724 -9.07278962 9.3745162 -10.5 9 C-11.19609375 8.80921875 -11.8921875 8.6184375 -12.609375 8.421875 C-18.49216288 6.89670777 -24.15721586 5.93395595 -30 8.125 C-32.26269814 9.89900615 -32.26269814 9.89900615 -32.6875 12.9375 C-32.29109551 16.19790305 -32.29109551 16.19790305 -29.48046875 18.01171875 C-25.75575588 20.33448571 -21.78786168 21.56302878 -17.625 22.875 C-9.64365013 25.56587948 -2.95888221 28.24450553 1.5625 35.75 C3.62688934 40.61010944 3.43946164 44.97355557 2 50 C-0.68952412 56.20659413 -4.60795451 60.47564811 -10.83203125 63.1875 C-21.6139783 65.95278358 -33.0373478 64.90225743 -43 60 C-43.65871094 59.69191406 -44.31742187 59.38382812 -44.99609375 59.06640625 C-46.34867334 58.41354451 -47.67876984 57.71417846 -49 57 C-48.19642857 48.96428571 -48.19642857 48.96428571 -46 45 C-44.97519531 45.42152344 -43.95039063 45.84304688 -42.89453125 46.27734375 C-41.53394819 46.8309603 -40.17326584 47.38433286 -38.8125 47.9375 C-38.13896484 48.21529297 -37.46542969 48.49308594 -36.77148438 48.77929688 C-28.6264035 52.07706133 -21.45769095 53.30056232 -13 50 C-13 47.03 -13 44.06 -13 41 C-17.42260083 38.56305668 -21.6891855 36.72679444 -26.52416992 35.23535156 C-34.51215261 32.76779235 -40.89043749 30.17847463 -46 23.3125 C-47.66790558 17.78756276 -48.2484376 12.15844043 -46.0859375 6.6875 C-43.18899793 1.75335776 -39.4774218 -2.72271622 -33.96875 -4.74609375 C-22.54287865 -7.6629095 -9.98478525 -6.4928385 0 0 Z " fill="#FAFDFE" transform="translate(377,213)"/>
<path d="M0 0 C-0.4748935 4.11574371 -1.0210244 7.36383344 -3 11 C-4.59328125 10.566875 -4.59328125 10.566875 -6.21875 10.125 C-7.64569849 9.74948724 -9.07278962 9.3745162 -10.5 9 C-11.19609375 8.80921875 -11.8921875 8.6184375 -12.609375 8.421875 C-18.4513783 6.90728155 -24.20977779 5.8126714 -29.9375 8.25 C-32.0459426 9.84921085 -32.0459426 9.84921085 -33.125 11.875 C-32.96052947 14.67099909 -31.72676398 15.82394263 -29.75634766 17.71582031 C-25.41760517 20.88815636 -19.87999947 22.18109612 -14.8359375 23.87304688 C-7.47196513 26.47673711 -2.10356845 29.51596476 2 36.3125 C3.80524255 42.96933191 2.72901879 49.09003899 -0.5625 55.140625 C-4.00792752 59.5972106 -9.40489393 63.10831059 -15 64 C-28.29349925 64.71190727 -37.83342624 63.69793777 -49 56 C-48.71758359 54.53984709 -48.42373386 53.08190207 -48.125 51.625 C-47.96257812 50.81289063 -47.80015625 50.00078125 -47.6328125 49.1640625 C-47 47 -47 47 -45 45 C-43.55367188 45.63228516 -43.55367188 45.63228516 -42.078125 46.27734375 C-40.80215324 46.83089032 -39.52610767 47.38426681 -38.25 47.9375 C-37.61578125 48.21529297 -36.9815625 48.49308594 -36.328125 48.77929688 C-29.54531147 51.71145064 -23.32937651 53.28960151 -16.0625 51.125 C-13.84793921 50.17176549 -13.84793921 50.17176549 -13 48 C-12.95977609 45.6670134 -12.95679753 43.33293334 -13 41 C-17.42264043 38.56303486 -21.689357 36.72710762 -26.52416992 35.23510742 C-34.4014311 32.80272441 -40.70232153 30.14869226 -45.9375 23.5625 C-48.40807179 17.60406216 -48.28753676 12.9911677 -46 7 C-42.54116602 0.91722301 -38.9401198 -2.52004967 -32.3125 -4.75 C-21.35912982 -7.69462832 -9.5816396 -6.23068368 0 0 Z " fill="#FBFDFE" transform="translate(156,213)"/>
<path d="M0 0 C-0.78224743 4.3972938 -2.17154259 7.94559445 -4 12 C-4.57959473 11.83991455 -5.15918945 11.6798291 -5.75634766 11.51489258 C-9.2663288 10.70939201 -12.79173463 10.7336761 -16.375 10.6875 C-17.1175 10.65849609 -17.86 10.62949219 -18.625 10.59960938 C-23.88651477 10.53918562 -26.87018786 11.46277925 -31 15 C-36.19100909 21.66380701 -36.96995377 28.82005653 -36 37 C-35.15263004 41.99392625 -34.11151504 46.44942191 -30.3125 50 C-22.07416078 54.9740916 -13.88368115 54.6398165 -4.72265625 52.4375 C-4.15417969 52.293125 -3.58570313 52.14875 -3 52 C-0.95480465 56.34604012 0.20161508 59.13603617 0 64 C-11.2739586 67.937682 -23.3618885 69.08181633 -34.56640625 64.3203125 C-42.70254116 59.90616547 -47.76944628 53.53984336 -50.74609375 44.8125 C-53.48626244 34.22977955 -52.78072545 22.95595793 -47.6875 13.25 C-43.51308622 6.26028391 -37.58502581 0.95576716 -29.8359375 -1.7578125 C-19.45230596 -4.3628932 -10.2112421 -2.68885372 0 0 Z " fill="#F9FDFE" transform="translate(598,210)"/>
<path d="M0 0 C4.29 0 8.58 0 13 0 C14.86455346 1.86455346 14.12658685 4.53406348 14.13552856 7.01521301 C14.13350433 7.87966537 14.1314801 8.74411774 14.12939453 9.63476562 C14.13114685 10.54038742 14.13289917 11.44600922 14.13470459 12.3790741 C14.13912454 15.38815193 14.13618461 18.39717152 14.1328125 21.40625 C14.1334855 23.48750825 14.13445549 25.56876643 14.13571167 27.65002441 C14.13718884 32.01815538 14.13503348 36.38626593 14.13037109 40.75439453 C14.1246738 46.36714553 14.1279527 51.97984872 14.13394356 57.59259796 C14.13754866 61.89211389 14.13641082 66.19161838 14.13381577 70.49113464 C14.13314636 72.56129461 14.1339754 74.6314556 14.13629532 76.70161438 C14.13882102 79.58951586 14.13498242 82.47733878 14.12939453 85.36523438 C14.13141876 86.22968674 14.13344299 87.0941391 14.13552856 87.98478699 C14.11426237 93.88573763 14.11426237 93.88573763 13 95 C8.71 95 4.42 95 0 95 C0 63.65 0 32.3 0 0 Z " fill="#F9FCFE" transform="translate(235,181)"/>
<path d="M0 0 C0.94746094 -0.01417969 1.89492188 -0.02835938 2.87109375 -0.04296875 C5.60751644 0.19135482 7.22678123 0.79048617 9.5625 2.1875 C9.0872412 3.83446604 8.60718109 5.48004728 8.125 7.125 C7.85816406 8.04152344 7.59132813 8.95804688 7.31640625 9.90234375 C6.5625 12.1875 6.5625 12.1875 5.5625 13.1875 C3.68815754 13.26732216 1.81290493 13.32613709 -0.0625 13.375 C-5.39337188 13.77481539 -8.26968639 14.77016375 -12.1328125 18.421875 C-15.94897267 23.58625942 -15.77370453 28.91628414 -15.8515625 35.08203125 C-15.87092865 36.02938644 -15.8902948 36.97674164 -15.9102478 37.95280457 C-15.96986371 40.96844577 -16.01635705 43.98412552 -16.0625 47 C-16.10069633 49.04884446 -16.13974902 51.09767314 -16.1796875 53.14648438 C-16.27555053 58.16002762 -16.35964807 63.17364603 -16.4375 68.1875 C-21.0575 68.1875 -25.6775 68.1875 -30.4375 68.1875 C-31.52917216 63.82081135 -31.56599569 59.81901677 -31.53125 55.359375 C-31.52766479 54.48198669 -31.52407959 53.60459839 -31.52038574 52.70062256 C-31.45835012 42.27703004 -31.20168008 31.8575425 -30.9375 21.4375 C-30.88910095 19.45703666 -30.84092291 17.47656791 -30.79296875 15.49609375 C-30.67701238 10.72649659 -30.55811643 5.95698149 -30.4375 1.1875 C-25.8175 1.1875 -21.1975 1.1875 -16.4375 1.1875 C-16.1075 2.5075 -15.7775 3.8275 -15.4375 5.1875 C-14.344375 4.548125 -13.25125 3.90875 -12.125 3.25 C-8.01940428 0.84861383 -4.7639247 0.03231971 0 0 Z " fill="#FAFDFE" transform="translate(535.4375,207.8125)"/>
<path d="M0 0 C4.94090063 4.11741719 6.3173958 8.74279483 7 15 C7.62349394 23.33770324 6.9615068 30.51147424 3 38 C-0.73391792 41.82498909 -3.52510504 42.92863411 -8.875 43.1875 C-14.14871411 43.08144725 -16.87676056 42.12323944 -20.6875 38.3125 C-25.0506488 33.26716507 -25.36450385 26.44750187 -25.3125 20.0625 C-25.30831055 19.35955811 -25.30412109 18.65661621 -25.29980469 17.93237305 C-25.13601743 10.42342433 -23.54660782 4.38813331 -18 -1 C-11.36623244 -4.0284591 -6.21030328 -3.78018461 0 0 Z " fill="#03A2E0" transform="translate(472,222)"/>
<path d="M0 0 C1.31226563 0.00644531 2.62453125 0.01289063 3.9765625 0.01953125 C7.375 0.1875 7.375 0.1875 10.375 1.1875 C10.375 7.4575 10.375 13.7275 10.375 20.1875 C1.08302137 22.13233274 -6.09744386 22.95127807 -14.75 18.625 C-17.18810904 15.45545824 -17.27931755 13.30069639 -17.046875 9.375 C-16.40960813 6.07065329 -15.11313603 4.40664835 -12.625 2.1875 C-8.38791467 0.00406504 -4.72221351 -0.05122717 0 0 Z " fill="#02A1E0" transform="translate(196.625,243.8125)"/>
<path d="M0 0 C3.11045733 2.05007415 4.82874239 3.61040398 6.75 6.8125 C7.08 9.4525 7.41 12.0925 7.75 14.8125 C-1.82 14.8125 -11.39 14.8125 -21.25 14.8125 C-20.24483181 6.77115446 -19.89162711 4.74603295 -14 0 C-9.04960423 -2.1376709 -4.91786099 -1.79691075 0 0 Z " fill="#04A2E0" transform="translate(639.25,220.1875)"/>
<path d="M0 0 C4.00572296 2.34297003 5.75053287 4.61269853 7.3125 8.9375 C7.6425 10.9175 7.9725 12.8975 8.3125 14.9375 C-1.5875 14.9375 -11.4875 14.9375 -21.6875 14.9375 C-19.29276316 4.16118421 -19.29276316 4.16118421 -12.8125 -0.375 C-8.29718435 -1.83583742 -4.49506223 -1.29518742 0 0 Z " fill="#05A2E0" transform="translate(297.6875,220.0625)"/>
<path d="" fill="#4F91B1" transform="translate(0,0)"/>
</svg>
